<svg xmlns="http://www.w3.org/2000/svg" xmlns:xlink="http://www.w3.org/1999/xlink" width="485" height="355" viewBox="0 0 485 355"><defs><filter id="Rectangle_10332" x="0" y="0" width="485" height="355" filterUnits="userSpaceOnUse"><feGaussianBlur stdDeviation="10"></feGaussianBlur></filter></defs><g id="Group_7702" data-name="Group 7702" transform="translate(-1159 -1679)"><g transform="matrix(1, 0, 0, 1, 1159, 1679)" filter="url(#Rectangle_10332)"><rect id="Rectangle_10332-2" data-name="Rectangle 10332" width="425" height="295" rx="6" transform="translate(30 27)" fill="#fff"></rect></g><text id="Rate_technician" data-name="Rate technician" transform="translate(1402 1775)" fill="#2f3f4c" font-size="18" font-family="ProximaNova-Bold, Proxima Nova" font-weight="700"><tspan x="-63" y="0">Rate technician</tspan></text><g id="Group_2508" data-name="Group 2508" transform="translate(1445.316 1942.863)"><rect id="Rectangle_1719" data-name="Rectangle 1719" width="131.173" height="29.15" rx="4" fill="#01d4d5"></rect><text id="Submit" transform="translate(64.04 17.745)" fill="#fff" font-size="8" font-family="OpenSans-Bold, Open Sans" font-weight="700"><tspan x="-14" y="0">Submit</tspan></text></g><g id="Group_2509" data-name="Group 2509" transform="translate(1227.148 1942.863)"><g id="Group_2483" data-name="Group 2483"><rect id="Rectangle_1719-2" data-name="Rectangle 1719" width="131" height="29" rx="4" transform="translate(-0.149 0.299)" fill="#92a9b8"></rect><text id="Cancel" transform="translate(63.851 17.299)" fill="#fff" font-size="8" font-family="OpenSans-Bold, Open Sans" font-weight="700"><tspan x="-13" y="0">Cancel</tspan></text></g></g><text id="please_rate_the_following:" data-name="please rate the following:" transform="translate(1227 1865.24)" fill="#293742" font-size="6" font-family="ProximaNova-Semibold, Proxima Nova" font-weight="600"><tspan x="0" y="0">PLEASE RATE THE FOLLOWING:</tspan></text><g id="Group_7508" data-name="Group 7508" transform="translate(-366 405.412)"><g id="Group_7507" data-name="Group 7507" transform="translate(1594 1393.999)"><text id="Job_completed_successfully" data-name="Job completed successfully" transform="translate(1 27)" fill="#708390" font-size="9" font-family="OpenSans-Semibold, Open Sans" font-weight="600"><tspan x="0" y="0">Job completed successfully</tspan></text><text id="reason_for_ending_the_job" data-name="reason for ending the job" transform="translate(1 6)" fill="#293742" font-size="6" font-family="ProximaNova-Bold, Proxima Nova" font-weight="700"><tspan x="0" y="0">REASON FOR ENDING THE JOB</tspan></text><path id="Path_1406" data-name="Path 1406" d="M8.448-11.439a.278.278,0,0,1,.057.171.205.205,0,0,1-.057.152L4.482-7.131a.278.278,0,0,1-.171.057.205.205,0,0,1-.152-.057L.174-11.116a.205.205,0,0,1-.057-.152.278.278,0,0,1,.057-.171l.38-.38a.205.205,0,0,1,.152-.057.278.278,0,0,1,.171.057L4.311-8.383l3.435-3.435a.278.278,0,0,1,.171-.057.205.205,0,0,1,.152.057Z" transform="translate(339.984 33.409)" fill="#708390"></path><line id="Line_101" data-name="Line 101" x2="347.611" transform="translate(0.878 39.023)" fill="none" stroke="#92a9b8" stroke-width="1"></line></g></g><g id="Group_7621" data-name="Group 7621" transform="translate(0 4)"><path id="Polygon_1" data-name="Polygon 1" d="M14.5,4.271,11.895,9.188a3.481,3.481,0,0,1-2.459,1.8L3.974,12,7.841,16.1a3.486,3.486,0,0,1,.922,2.863l-.748,5.6,4.947-2.419a3.5,3.5,0,0,1,3.075,0l4.947,2.419-.748-5.6a3.486,3.486,0,0,1,.922-2.863L25.026,12l-5.462-1.005a3.481,3.481,0,0,1-2.459-1.8L14.5,4.271m0-2.568a1.484,1.484,0,0,1,1.325.8l3.047,5.75a1.5,1.5,0,0,0,1.054.773L26.291,10.2a1.5,1.5,0,0,1,.82,2.5l-4.5,4.774a1.5,1.5,0,0,0-.395,1.227l.871,6.522a1.5,1.5,0,0,1-2.146,1.546l-5.786-2.83a1.5,1.5,0,0,0-1.318,0l-5.786,2.83a1.5,1.5,0,0,1-2.146-1.546L6.781,18.7a1.5,1.5,0,0,0-.395-1.227L1.889,12.7a1.5,1.5,0,0,1,.82-2.5L9.074,9.025a1.5,1.5,0,0,0,1.054-.773L13.175,2.5A1.484,1.484,0,0,1,14.5,1.7Z" transform="translate(1227 1876)" fill="#01d4d5"></path><path id="Polygon_4" data-name="Polygon 4" d="M14.5,4.271,11.895,9.188a3.481,3.481,0,0,1-2.459,1.8L3.974,12,7.841,16.1a3.486,3.486,0,0,1,.922,2.863l-.748,5.6,4.947-2.419a3.5,3.5,0,0,1,3.075,0l4.947,2.419-.748-5.6a3.486,3.486,0,0,1,.922-2.863L25.026,12l-5.462-1.005a3.481,3.481,0,0,1-2.459-1.8L14.5,4.271m0-2.568a1.484,1.484,0,0,1,1.325.8l3.047,5.75a1.5,1.5,0,0,0,1.054.773L26.291,10.2a1.5,1.5,0,0,1,.82,2.5l-4.5,4.774a1.5,1.5,0,0,0-.395,1.227l.871,6.522a1.5,1.5,0,0,1-2.146,1.546l-5.786-2.83a1.5,1.5,0,0,0-1.318,0l-5.786,2.83a1.5,1.5,0,0,1-2.146-1.546L6.781,18.7a1.5,1.5,0,0,0-.395-1.227L1.889,12.7a1.5,1.5,0,0,1,.82-2.5L9.074,9.025a1.5,1.5,0,0,0,1.054-.773L13.175,2.5A1.484,1.484,0,0,1,14.5,1.7Z" transform="translate(1309 1876)" fill="#01d4d5"></path><path id="Polygon_2" data-name="Polygon 2" d="M14.5,4.271,11.895,9.188a3.481,3.481,0,0,1-2.459,1.8L3.974,12,7.841,16.1a3.486,3.486,0,0,1,.922,2.863l-.748,5.6,4.947-2.419a3.5,3.5,0,0,1,3.075,0l4.947,2.419-.748-5.6a3.486,3.486,0,0,1,.922-2.863L25.026,12l-5.462-1.005a3.481,3.481,0,0,1-2.459-1.8L14.5,4.271m0-2.568a1.484,1.484,0,0,1,1.325.8l3.047,5.75a1.5,1.5,0,0,0,1.054.773L26.291,10.2a1.5,1.5,0,0,1,.82,2.5l-4.5,4.774a1.5,1.5,0,0,0-.395,1.227l.871,6.522a1.5,1.5,0,0,1-2.146,1.546l-5.786-2.83a1.5,1.5,0,0,0-1.318,0l-5.786,2.83a1.5,1.5,0,0,1-2.146-1.546L6.781,18.7a1.5,1.5,0,0,0-.395-1.227L1.889,12.7a1.5,1.5,0,0,1,.82-2.5L9.074,9.025a1.5,1.5,0,0,0,1.054-.773L13.175,2.5A1.484,1.484,0,0,1,14.5,1.7Z" transform="translate(1268 1876)" fill="#01d4d5"></path><path id="Polygon_3" data-name="Polygon 3" d="M14.5,4.271,11.895,9.188a3.481,3.481,0,0,1-2.459,1.8L3.974,12,7.841,16.1a3.486,3.486,0,0,1,.922,2.863l-.748,5.6,4.947-2.419a3.5,3.5,0,0,1,3.075,0l4.947,2.419-.748-5.6a3.486,3.486,0,0,1,.922-2.863L25.026,12l-5.462-1.005a3.481,3.481,0,0,1-2.459-1.8L14.5,4.271m0-2.568a1.484,1.484,0,0,1,1.325.8l3.047,5.75a1.5,1.5,0,0,0,1.054.773L26.291,10.2a1.5,1.5,0,0,1,.82,2.5l-4.5,4.774a1.5,1.5,0,0,0-.395,1.227l.871,6.522a1.5,1.5,0,0,1-2.146,1.546l-5.786-2.83a1.5,1.5,0,0,0-1.318,0l-5.786,2.83a1.5,1.5,0,0,1-2.146-1.546L6.781,18.7a1.5,1.5,0,0,0-.395-1.227L1.889,12.7a1.5,1.5,0,0,1,.82-2.5L9.074,9.025a1.5,1.5,0,0,0,1.054-.773L13.175,2.5A1.484,1.484,0,0,1,14.5,1.7Z" transform="translate(1350 1876)" fill="#01d4d5"></path><path id="Polygon_5" data-name="Polygon 5" d="M14.5,4.271,11.895,9.188a3.481,3.481,0,0,1-2.459,1.8L3.974,12,7.841,16.1a3.486,3.486,0,0,1,.922,2.863l-.748,5.6,4.947-2.419a3.5,3.5,0,0,1,3.075,0l4.947,2.419-.748-5.6a3.486,3.486,0,0,1,.922-2.863L25.026,12l-5.462-1.005a3.481,3.481,0,0,1-2.459-1.8L14.5,4.271m0-2.568a1.484,1.484,0,0,1,1.325.8l3.047,5.75a1.5,1.5,0,0,0,1.054.773L26.291,10.2a1.5,1.5,0,0,1,.82,2.5l-4.5,4.774a1.5,1.5,0,0,0-.395,1.227l.871,6.522a1.5,1.5,0,0,1-2.146,1.546l-5.786-2.83a1.5,1.5,0,0,0-1.318,0l-5.786,2.83a1.5,1.5,0,0,1-2.146-1.546L6.781,18.7a1.5,1.5,0,0,0-.395-1.227L1.889,12.7a1.5,1.5,0,0,1,.82-2.5L9.074,9.025a1.5,1.5,0,0,0,1.054-.773L13.175,2.5A1.484,1.484,0,0,1,14.5,1.7Z" transform="translate(1391 1876)" fill="#01d4d5"></path></g></g></svg>